<?xml version="1.0" encoding="utf-8"?>
<!-- Generator: Adobe Illustrator 16.0.0, SVG Export Plug-In . SVG Version: 6.00 Build 0)  -->
<!DOCTYPE svg PUBLIC "-//W3C//DTD SVG 1.1//EN" "http://www.w3.org/Graphics/SVG/1.1/DTD/svg11.dtd">
<svg version="1.1" id="Layer_1" xmlns="http://www.w3.org/2000/svg" xmlns:xlink="http://www.w3.org/1999/xlink" x="0px" y="0px"
	 width="256px" height="256px" viewBox="0 0 256 256" enable-background="new 0 0 256 256" xml:space="preserve">
<path id="XMLID_239_" fill="#45301C" stroke="#FFFFFF" stroke-miterlimit="10" d="M228.05,37.55L198.8,3.65
	c-0.899-0.9-2.45-0.9-3.35,0l-29.25,33.9c-1.3,1.3-0.3,3.35,1.649,3.35h13.7v26.6h31.05V40.9h13.7
	C228.35,40.9,229.35,38.85,228.05,37.55z"/>
<rect id="XMLID_238_" x="181.6" y="72.3" fill="#45301C" stroke="#FFFFFF" stroke-miterlimit="10" width="31.051" height="12.1"/>
<path id="XMLID_237_" fill="#45301C" stroke="#FFFFFF" stroke-miterlimit="10" d="M181.6,93.65c0,1.1,1,2,2.25,2H210.4
	c1.25,0,2.25-0.9,2.25-2V89.2H181.6V93.65z"/>
<path id="XMLID_236_" fill="#45301C" stroke="#FFFFFF" stroke-miterlimit="10" d="M193.35,232.1c0,7.9-6.399,14.301-14.3,14.301
	H54.75c-7.9,0-14.3-6.4-14.3-14.301V227.7h-6.6v6.8c0,10.25,8.3,18.5,18.5,18.5H181.4c10.25,0,18.5-8.3,18.5-18.5V100.2H193.3V232.1
	H193.35z"/>
<path id="XMLID_235_" fill="#45301C" stroke="#FFFFFF" stroke-miterlimit="10" d="M40.45,55.15c0-7.9,6.4-14.3,14.3-14.3h106.6
	c-0.699-2.2-0.149-4.65,1.5-6.35l0.2-0.2H52.4c-10.25,0-18.5,8.3-18.5,18.5v113.7h6.6V55.15H40.45z"/>
<rect x="34.002" y="174.5" fill="#45301C" stroke="#FFFFFF" stroke-miterlimit="10" width="139.334" height="43.567"/>
<g>
	<path fill="#E79E2D" d="M103.129,206.526H89.478l-2.462,6.573h-8.122l13.651-33.904h8.165l13.651,33.904h-8.77L103.129,206.526z
		 M100.71,199.954l-4.406-11.814l-4.407,11.814H100.71z"/>
	<path fill="#E79E2D" d="M125.765,179.195V213.1h-7.862v-33.904H125.765z"/>
</g>
<path fill="#E79E2D" d="M104.821,132.506H75.459l-5.296,14.137H52.694l29.362-72.923h17.561l29.362,72.923h-18.862L104.821,132.506z
	 M99.617,118.368L90.14,92.957l-9.477,25.411H99.617z"/>
<path fill="#E79E2D" d="M153.508,96.609v50.033h-16.91V96.609H153.508z"/>
<circle fill="#E79E2D" cx="145.646" cy="81.299" r="8.998"/>
</svg>
