<?xml version="1.0" encoding="utf-8"?>
<!-- Generator: Adobe Illustrator 16.0.0, SVG Export Plug-In . SVG Version: 6.00 Build 0)  -->
<!DOCTYPE svg PUBLIC "-//W3C//DTD SVG 1.1//EN" "http://www.w3.org/Graphics/SVG/1.1/DTD/svg11.dtd">
<svg version="1.1" id="Layer_1" xmlns="http://www.w3.org/2000/svg" xmlns:xlink="http://www.w3.org/1999/xlink" x="0px" y="0px"
	 width="256px" height="256px" viewBox="0 0 256 256" enable-background="new 0 0 256 256" xml:space="preserve">
<g id="XMLID_1043_">
	<rect id="XMLID_244_" x="60.15" y="79.3" fill="#138045" width="113.55" height="9.55"/>
	<rect id="XMLID_243_" x="60.15" y="94.8" fill="#138045" width="113.55" height="9.55"/>
	<rect id="XMLID_242_" x="60.15" y="110.35" fill="#138045" width="113.55" height="9.55"/>
	<rect id="XMLID_241_" x="60.15" y="125.85" fill="#138045" width="113.55" height="9.55"/>
	<rect id="XMLID_240_" x="60.15" y="141.35" fill="#138045" width="88.25" height="9.551"/>
	<path id="XMLID_239_" fill="#138045" d="M228.05,37.55L198.8,3.65c-0.899-0.9-2.45-0.9-3.35,0l-29.25,33.9
		c-1.3,1.3-0.3,3.35,1.649,3.35h13.7v26.6h31.05V40.9h13.7C228.35,40.9,229.35,38.85,228.05,37.55z"/>
	<rect id="XMLID_238_" x="181.6" y="72.3" fill="#138045" width="31.051" height="12.1"/>
	<path id="XMLID_237_" fill="#138045" d="M181.6,93.65c0,1.1,1,2,2.25,2H210.4c1.25,0,2.25-0.9,2.25-2V89.2H181.6V93.65z"/>
	<path id="XMLID_236_" fill="#138045" d="M193.35,232.1c0,7.9-6.399,14.301-14.3,14.301H54.75c-7.9,0-14.3-6.4-14.3-14.301V227.7
		h-6.6v6.8c0,10.25,8.3,18.5,18.5,18.5H181.4c10.25,0,18.5-8.3,18.5-18.5V100.2H193.3V232.1H193.35z"/>
	<path id="XMLID_235_" fill="#138045" d="M40.45,55.15c0-7.9,6.4-14.3,14.3-14.3h106.6c-0.699-2.2-0.149-4.65,1.5-6.35l0.2-0.2H52.4
		c-10.25,0-18.5,8.3-18.5,18.5v113.7h6.6V55.15H40.45z"/>
	<rect x="33.85" y="174.5" fill="#138045" width="139.333" height="43.567"/>
	<g>
		<path fill="#FFFFFF" d="M66.667,196.002l-11.275-16.807h9.331l7.084,11.065l7.301-11.065h8.942l-11.319,16.557L88.439,213.1
			h-9.202l-7.56-11.689L63.945,213.1h-8.942L66.667,196.002z"/>
		<path fill="#FFFFFF" d="M99.8,179.195v27.207h17.583v6.697H91.938v-33.904H99.8z"/>
		<path fill="#FFFFFF" d="M142.094,179.778c2.102,0.942,3.779,2.253,5.031,3.931c1.254,1.679,1.938,3.585,2.053,5.72h-8.121
			c-0.23-1.497-0.907-2.662-2.03-3.494c-1.124-0.832-2.621-1.248-4.493-1.248c-1.785,0-3.182,0.313-4.189,0.937
			c-1.01,0.624-1.513,1.463-1.513,2.517c0,0.832,0.316,1.512,0.95,2.038c0.633,0.527,1.605,0.992,2.916,1.394
			c1.311,0.402,3.219,0.853,5.725,1.353c3.887,0.776,6.674,2.059,8.357,3.848c1.686,1.789,2.527,4.028,2.527,6.719
			c0,2.107-0.625,3.951-1.879,5.532c-1.252,1.581-2.959,2.794-5.119,3.641c-2.159,0.846-4.564,1.269-7.213,1.269
			c-2.881,0-5.465-0.479-7.755-1.436c-2.29-0.957-4.104-2.323-5.443-4.098s-2.067-3.854-2.182-6.24h8.079
			c0.23,1.637,1.043,2.947,2.44,3.932c1.397,0.984,3.204,1.477,5.422,1.477c1.613,0,2.945-0.346,3.996-1.04
			c1.051-0.692,1.576-1.594,1.576-2.704c0-0.887-0.279-1.622-0.842-2.204c-0.561-0.583-1.454-1.082-2.678-1.498
			c-1.225-0.416-2.932-0.817-5.119-1.206c-3.946-0.721-6.898-1.928-8.856-3.619c-1.959-1.691-2.938-4.077-2.938-7.155
			c0-1.997,0.626-3.729,1.879-5.2c1.252-1.47,2.959-2.6,5.119-3.391c2.16-0.79,4.579-1.186,7.257-1.186
			C137.645,178.363,139.99,178.835,142.094,179.778z"/>
	</g>
</g>
</svg>
