<?xml version="1.0" encoding="utf-8"?>
<!-- Generator: Adobe Illustrator 16.0.0, SVG Export Plug-In . SVG Version: 6.00 Build 0)  -->
<!DOCTYPE svg PUBLIC "-//W3C//DTD SVG 1.1//EN" "http://www.w3.org/Graphics/SVG/1.1/DTD/svg11.dtd">
<svg version="1.1" id="Layer_1" xmlns="http://www.w3.org/2000/svg" xmlns:xlink="http://www.w3.org/1999/xlink" x="0px" y="0px"
	 width="256px" height="256px" viewBox="0 0 256 256" enable-background="new 0 0 256 256" xml:space="preserve">
<path id="XMLID_239_" fill="#E8C560" stroke="#FFFFFF" stroke-miterlimit="10" d="M228.05,37.55L198.8,3.65
	c-0.899-0.9-2.45-0.9-3.35,0l-29.25,33.9c-1.3,1.3-0.3,3.35,1.649,3.35h13.7v26.6h31.05V40.9h13.7
	C228.35,40.9,229.35,38.85,228.05,37.55z"/>
<rect id="XMLID_238_" x="181.6" y="72.3" fill="#E8C560" stroke="#FFFFFF" stroke-miterlimit="10" width="31.051" height="12.1"/>
<path id="XMLID_237_" fill="#E8C560" stroke="#FFFFFF" stroke-miterlimit="10" d="M181.6,93.65c0,1.1,1,2,2.25,2H210.4
	c1.25,0,2.25-0.9,2.25-2V89.2H181.6V93.65z"/>
<path id="XMLID_236_" fill="#E8C560" stroke="#FFFFFF" stroke-miterlimit="10" d="M193.35,232.1c0,7.9-6.399,14.301-14.3,14.301
	H54.75c-7.9,0-14.3-6.4-14.3-14.301V227.7h-6.6v6.8c0,10.25,8.3,18.5,18.5,18.5H181.4c10.25,0,18.5-8.3,18.5-18.5V100.2H193.3V232.1
	H193.35z"/>
<path id="XMLID_235_" fill="#E8C560" stroke="#FFFFFF" stroke-miterlimit="10" d="M40.45,55.15c0-7.9,6.4-14.3,14.3-14.3h106.6
	c-0.699-2.2-0.149-4.65,1.5-6.35l0.2-0.2H52.4c-10.25,0-18.5,8.3-18.5,18.5v113.7h6.6V55.15H40.45z"/>
<rect x="33.85" y="175.5" fill="#E8C560" stroke="#FFFFFF" stroke-miterlimit="10" width="139.333" height="43.567"/>
<g>
	<path fill="#FFFFFF" d="M90.19,180.819c2.462,0.998,4.521,2.357,6.178,4.077c1.656,1.72,2.83,3.646,3.521,5.782h-8.64
		c-0.778-1.304-1.966-2.364-3.564-3.183c-1.599-0.817-3.435-1.227-5.508-1.227c-2.103,0-4.003,0.464-5.702,1.394
		c-1.7,0.929-3.031,2.219-3.996,3.868c-0.965,1.65-1.447,3.516-1.447,5.596s0.482,3.959,1.447,5.637
		c0.965,1.678,2.296,2.988,3.996,3.931c1.699,0.943,3.6,1.415,5.702,1.415c1.756,0,3.355-0.305,4.795-0.915
		c1.44-0.61,2.614-1.421,3.521-2.434s1.504-2.087,1.792-3.225H81.529v-6.406h19.138v1.997c0,3.384-0.814,6.427-2.441,9.131
		c-1.627,2.704-3.859,4.825-6.696,6.365c-2.837,1.539-6.012,2.309-9.525,2.309c-3.572,0-6.79-0.77-9.655-2.309
		c-2.866-1.54-5.113-3.661-6.739-6.365c-1.627-2.704-2.441-5.747-2.441-9.131s0.813-6.428,2.441-9.132
		c1.626-2.704,3.873-4.825,6.739-6.364c2.865-1.539,6.083-2.309,9.655-2.309C84.999,179.322,87.728,179.821,90.19,180.819z"/>
	<path fill="#FFFFFF" d="M113.194,180.195V214.1h-7.862v-33.904H113.194z"/>
	<path fill="#FFFFFF" d="M119.414,180.195h25.834v6.656h-17.972v7.696h15.984v6.572h-15.984V214.1h-7.862V180.195z"/>
</g>
<g>
	<path fill="#E8C560" d="M160.974,80.329h-17.842l-10.68-10.785c0,0-0.052-0.053-0.079-0.053l-0.053-0.052l0,0
		c-1.586-1.587-3.727-2.592-6.159-2.592h-22.203c-2.59,0-4.891,1.111-6.503,2.882v0.026l-10.44,10.573H68.777
		c-4.917,0-8.881,3.859-8.881,8.775v53.421c0,4.915,3.965,8.907,8.881,8.907h92.197c4.89,0,8.881-3.992,8.881-8.907V89.104
		C169.854,84.188,165.863,80.329,160.974,80.329z M114.875,138.085c-13.454,0-24.423-10.997-24.423-24.477
		c0-13.507,10.969-24.477,24.423-24.477c13.48,0,24.423,10.969,24.423,24.477C139.298,127.088,128.355,138.085,114.875,138.085z
		 M159.308,94.47c-2.034,0-3.7-1.665-3.7-3.727c0-2.063,1.666-3.727,3.7-3.727c2.035,0,3.701,1.665,3.701,3.727
		C163.009,92.805,161.343,94.47,159.308,94.47z"/>
	<path fill="#E8C560" d="M114.875,95.104c-10.203,0-18.45,8.274-18.45,18.503c0,10.202,8.247,18.502,18.45,18.502
		c10.176,0,18.449-8.274,18.449-18.502C133.324,103.378,125.051,95.104,114.875,95.104z"/>
</g>
</svg>
