<?xml version="1.0" encoding="utf-8"?>
<!-- Generator: Adobe Illustrator 16.0.0, SVG Export Plug-In . SVG Version: 6.00 Build 0)  -->
<!DOCTYPE svg PUBLIC "-//W3C//DTD SVG 1.1//EN" "http://www.w3.org/Graphics/SVG/1.1/DTD/svg11.dtd">
<svg version="1.1" id="Layer_1" xmlns="http://www.w3.org/2000/svg" xmlns:xlink="http://www.w3.org/1999/xlink" x="0px" y="0px"
	 width="256px" height="256px" viewBox="0 0 256 256" enable-background="new 0 0 256 256" xml:space="preserve">
<path id="XMLID_239_" fill="#1B8BC9" stroke="#FFFFFF" stroke-miterlimit="10" d="M228.05,37.55L198.8,3.65
	c-0.899-0.9-2.45-0.9-3.35,0l-29.25,33.9c-1.3,1.3-0.3,3.35,1.649,3.35h13.7v26.6h31.05V40.9h13.7
	C228.35,40.9,229.35,38.85,228.05,37.55z"/>
<rect id="XMLID_238_" x="181.6" y="72.3" fill="#1B8BC9" stroke="#FFFFFF" stroke-miterlimit="10" width="31.051" height="12.1"/>
<path id="XMLID_237_" fill="#1B8BC9" stroke="#FFFFFF" stroke-miterlimit="10" d="M181.6,93.65c0,1.1,1,2,2.25,2H210.4
	c1.25,0,2.25-0.9,2.25-2V89.2H181.6V93.65z"/>
<path id="XMLID_236_" fill="#1B8BC9" stroke="#FFFFFF" stroke-miterlimit="10" d="M193.35,232.1c0,7.9-6.399,14.301-14.3,14.301
	H54.75c-7.9,0-14.3-6.4-14.3-14.301V227.7h-6.6v6.8c0,10.25,8.3,18.5,18.5,18.5H181.4c10.25,0,18.5-8.3,18.5-18.5V100.2H193.3V232.1
	H193.35z"/>
<path id="XMLID_235_" fill="#1B8BC9" stroke="#FFFFFF" stroke-miterlimit="10" d="M40.45,55.15c0-7.9,6.4-14.3,14.3-14.3h106.6
	c-0.699-2.2-0.149-4.65,1.5-6.35l0.2-0.2H52.4c-10.25,0-18.5,8.3-18.5,18.5v113.7h6.6V55.15H40.45z"/>
<rect x="33.85" y="175.5" fill="#1B8BC9" stroke="#FFFFFF" stroke-miterlimit="10" width="139.333" height="43.567"/>
<g>
	<path fill="#FFFFFF" d="M54.724,180.195h6.264l12.139,18.97l12.139-18.97h6.264V214.1h-7.863v-18.596l-8.165,13.021h-4.752
		l-8.165-13.021V214.1h-7.862V180.195z"/>
	<path fill="#FFFFFF" d="M97.751,180.195h13.521c3.024,0,5.623,0.514,7.798,1.539c2.174,1.026,3.837,2.469,4.99,4.327
		c1.151,1.857,1.728,4.035,1.728,6.53c0,2.524-0.576,4.722-1.728,6.594c-1.152,1.872-2.815,3.322-4.99,4.348
		c-2.175,1.026-4.774,1.539-7.798,1.539h-5.659v9.027h-7.862V180.195z M110.927,198.375c2.217,0,3.938-0.5,5.162-1.498
		c1.224-0.998,1.836-2.427,1.836-4.285c0-1.857-0.612-3.271-1.836-4.243c-1.225-0.97-2.945-1.455-5.162-1.455h-5.314v11.481H110.927
		z"/>
	<path fill="#FFFFFF" d="M147.43,180.57c1.873,0.859,3.328,2.059,4.363,3.598c1.037,1.539,1.557,3.308,1.557,5.305
		c0,1.248-0.281,2.398-0.844,3.452c-0.561,1.055-1.295,1.914-2.203,2.579c-0.906,0.666-1.865,1.082-2.873,1.248
		c1.125,0.167,2.211,0.583,3.262,1.248c1.053,0.666,1.916,1.539,2.594,2.621c0.676,1.082,1.014,2.316,1.014,3.702
		c0,2.136-0.576,4.001-1.727,5.596c-1.152,1.594-2.715,2.828-4.688,3.702s-4.184,1.311-6.631,1.311c-3.832,0-6.898-0.957-9.203-2.87
		c-2.304-1.914-3.6-4.521-3.887-7.821h7.733c0.144,1.387,0.67,2.454,1.576,3.203c0.908,0.749,2.168,1.123,3.781,1.123
		c1.611,0,2.916-0.388,3.908-1.164c0.994-0.776,1.49-1.789,1.49-3.037c0-1.387-0.555-2.454-1.662-3.203
		c-1.109-0.749-2.6-1.123-4.471-1.123h-3.5v-6.157h3.5c1.582,0,2.828-0.381,3.736-1.144c0.906-0.763,1.361-1.796,1.361-3.1
		c0-1.248-0.412-2.232-1.232-2.953c-0.82-0.722-1.965-1.082-3.434-1.082c-1.441,0-2.549,0.472-3.328,1.414
		c-0.776,0.943-1.165,2.066-1.165,3.37h-7.733c0-2.136,0.52-4.042,1.556-5.721c1.036-1.677,2.491-2.995,4.363-3.951
		c1.872-0.957,3.989-1.436,6.351-1.436C143.412,179.28,145.559,179.711,147.43,180.57z"/>
</g>
<path fill="#1B8BC9" d="M151.772,58.703v79.746c0,0-0.285,13.66-15.912,13.66c-17.109,0-18.261-11.102-18.261-13.67
	c0-5.49,2.144-11.475,18.226-11.475c7.401,0,9.112-1.902,9.112-6.75c0,0,0-35.228,0-38.229c0-3-0.183-4.085-3.515-3.331
	c-5.736,1.297-43.188,9.416-44.684,9.773c-1.495,0.358-1.922,1.244-1.922,3.878c0,4.846,0,52.391,0,57.523
	s-3.969,13.67-18.226,13.67c-14.256,0-15.947-9.107-15.947-13.67c0-6.771,5.126-11.141,15.963-11.141
	c10.094,0,11.375-2.848,11.375-7.084c0-15.111,0-59.324,0-61.511s0.89-3.666,3.113-4.156c3.715-0.815,56.455-11.689,56.455-11.689
	S151.772,53.286,151.772,58.703z"/>
</svg>
