<?xml version="1.0" encoding="utf-8"?>
<!-- Generator: Adobe Illustrator 16.0.0, SVG Export Plug-In . SVG Version: 6.00 Build 0)  -->
<!DOCTYPE svg PUBLIC "-//W3C//DTD SVG 1.1//EN" "http://www.w3.org/Graphics/SVG/1.1/DTD/svg11.dtd">
<svg version="1.1" id="Layer_1" xmlns="http://www.w3.org/2000/svg" xmlns:xlink="http://www.w3.org/1999/xlink" x="0px" y="0px"
	 width="256px" height="256px" viewBox="0 0 256 256" enable-background="new 0 0 256 256" xml:space="preserve">
<path id="XMLID_239_" fill="#1983D0" stroke="#FFFFFF" stroke-miterlimit="10" d="M228.05,37.55L198.8,3.65
	c-0.899-0.9-2.45-0.9-3.35,0l-29.25,33.9c-1.3,1.3-0.3,3.35,1.649,3.35h13.7v26.6h31.05V40.9h13.7
	C228.35,40.9,229.35,38.85,228.05,37.55z"/>
<rect id="XMLID_238_" x="181.6" y="72.3" fill="#1983D0" stroke="#FFFFFF" stroke-miterlimit="10" width="31.051" height="12.1"/>
<path id="XMLID_237_" fill="#1983D0" stroke="#FFFFFF" stroke-miterlimit="10" d="M181.6,93.65c0,1.1,1,2,2.25,2H210.4
	c1.25,0,2.25-0.9,2.25-2V89.2H181.6V93.65z"/>
<path id="XMLID_236_" fill="#1983D0" stroke="#FFFFFF" stroke-miterlimit="10" d="M193.35,232.1c0,7.9-6.399,14.301-14.3,14.301
	H54.75c-7.9,0-14.3-6.4-14.3-14.301V227.7h-6.6v6.8c0,10.25,8.3,18.5,18.5,18.5H181.4c10.25,0,18.5-8.3,18.5-18.5V100.2H193.3V232.1
	H193.35z"/>
<path id="XMLID_235_" fill="#1983D0" stroke="#FFFFFF" stroke-miterlimit="10" d="M40.45,55.15c0-7.9,6.4-14.3,14.3-14.3h106.6
	c-0.699-2.2-0.149-4.65,1.5-6.35l0.2-0.2H52.4c-10.25,0-18.5,8.3-18.5,18.5v113.7h6.6V55.15H40.45z"/>
<rect x="33.85" y="175.5" fill="#1983D0" stroke="#FFFFFF" stroke-miterlimit="10" width="139.333" height="43.567"/>
<g>
	<path fill="#FFFFFF" d="M53.724,180.195h6.264l12.139,18.97l12.139-18.97h6.264V214.1h-7.863v-18.596l-8.165,13.021h-4.752
		l-8.165-13.021V214.1h-7.862V180.195z"/>
	<path fill="#FFFFFF" d="M96.751,180.195h13.521c3.024,0,5.623,0.514,7.798,1.539c2.174,1.026,3.837,2.469,4.99,4.327
		c1.151,1.857,1.728,4.035,1.728,6.53c0,2.524-0.576,4.722-1.728,6.594c-1.152,1.872-2.815,3.322-4.99,4.348
		c-2.175,1.026-4.774,1.539-7.798,1.539h-5.659v9.027h-7.862V180.195z M109.927,198.375c2.217,0,3.938-0.5,5.162-1.498
		c1.224-0.998,1.836-2.427,1.836-4.285c0-1.857-0.612-3.271-1.836-4.243c-1.225-0.97-2.945-1.455-5.162-1.455h-5.314v11.481H109.927
		z"/>
	<path fill="#FFFFFF" d="M142.758,207.277h-15.811v-6.24l13.607-20.842h9.635v20.842h4.621v6.24h-4.621v6.822h-7.432V207.277z
		 M142.758,201.037v-13.063l-8.293,13.063H142.758z"/>
</g>
<path fill="#1983D0" d="M169.984,82.561c-0.97-0.482-1.939-0.482-2.423,0l-16.961,13.085V89.83c0-7.751-6.3-14.055-14.056-14.055
	H74.034c-7.756,0-14.055,6.304-14.055,14.055v43.614c0,7.753,6.299,14.056,14.055,14.056h62.511c7.756,0,14.056-6.303,14.056-14.056
	v-5.815l16.961,13.085c0.483,0.483,1.453,0.483,2.423,0c0.971-0.482,1.453-0.97,1.453-1.94V84.501
	C171.438,83.531,170.955,83.043,169.984,82.561z"/>
</svg>
