<?xml version="1.0" encoding="utf-8"?>
<!-- Generator: Adobe Illustrator 16.0.0, SVG Export Plug-In . SVG Version: 6.00 Build 0)  -->
<!DOCTYPE svg PUBLIC "-//W3C//DTD SVG 1.1//EN" "http://www.w3.org/Graphics/SVG/1.1/DTD/svg11.dtd">
<svg version="1.1" id="Layer_1" xmlns="http://www.w3.org/2000/svg" xmlns:xlink="http://www.w3.org/1999/xlink" x="0px" y="0px"
	 width="256px" height="256px" viewBox="0 0 256 256" enable-background="new 0 0 256 256" xml:space="preserve">
<path id="XMLID_239_" fill="#353535" stroke="#FFFFFF" stroke-miterlimit="10" d="M228.05,37.55L198.8,3.65
	c-0.899-0.9-2.45-0.9-3.35,0l-29.25,33.9c-1.3,1.3-0.3,3.35,1.649,3.35h13.7v26.6h31.05V40.9h13.7
	C228.35,40.9,229.35,38.85,228.05,37.55z"/>
<rect id="XMLID_238_" x="181.6" y="72.3" fill="#353535" stroke="#FFFFFF" stroke-miterlimit="10" width="31.051" height="12.1"/>
<path id="XMLID_237_" fill="#353535" stroke="#FFFFFF" stroke-miterlimit="10" d="M181.6,93.65c0,1.1,1,2,2.25,2H210.4
	c1.25,0,2.25-0.9,2.25-2V89.2H181.6V93.65z"/>
<path id="XMLID_236_" fill="#353535" stroke="#FFFFFF" stroke-miterlimit="10" d="M193.35,232.1c0,7.9-6.399,14.301-14.3,14.301
	H54.75c-7.9,0-14.3-6.4-14.3-14.301V227.7h-6.6v6.8c0,10.25,8.3,18.5,18.5,18.5H181.4c10.25,0,18.5-8.3,18.5-18.5V100.2H193.3V232.1
	H193.35z"/>
<path id="XMLID_235_" fill="#353535" stroke="#FFFFFF" stroke-miterlimit="10" d="M40.45,55.15c0-7.9,6.4-14.3,14.3-14.3h106.6
	c-0.699-2.2-0.149-4.65,1.5-6.35l0.2-0.2H52.4c-10.25,0-18.5,8.3-18.5,18.5v113.7h6.6V55.15H40.45z"/>
<rect x="34.13" y="174.5" fill="#353535" stroke="#FFFFFF" stroke-miterlimit="10" width="139.333" height="43.567"/>
<g>
	<path fill="#FFFFFF" d="M49.35,208.259c-2.144-1.185-3.824-2.816-5.04-4.896c-1.216-2.08-1.824-4.421-1.824-7.023
		s0.608-4.944,1.824-7.024c1.216-2.08,2.896-3.712,5.04-4.896c2.144-1.185,4.549-1.776,7.216-1.776c2.667,0,5.072,0.592,7.216,1.776
		c2.144,1.184,3.824,2.815,5.04,4.896c1.216,2.08,1.824,4.422,1.824,7.024s-0.608,4.943-1.824,7.023
		c-1.216,2.08-2.896,3.712-5.04,4.896c-2.144,1.184-4.55,1.775-7.216,1.775C53.898,210.034,51.494,209.442,49.35,208.259z
		 M60.79,203.698c1.258-0.725,2.245-1.732,2.96-3.023c0.714-1.291,1.072-2.736,1.072-4.336c0-1.621-0.357-3.072-1.072-4.353
		c-0.715-1.279-1.702-2.282-2.96-3.008c-1.259-0.725-2.667-1.088-4.224-1.088c-1.558,0-2.965,0.363-4.224,1.088
		c-1.259,0.726-2.245,1.729-2.96,3.008c-0.715,1.28-1.072,2.731-1.072,4.353c0,1.6,0.357,3.045,1.072,4.336s1.701,2.299,2.96,3.023
		c1.259,0.726,2.667,1.089,4.224,1.089C58.123,204.787,59.53,204.424,60.79,203.698z"/>
	<path fill="#FFFFFF" d="M85.429,195.539h-3.712v13.855h-5.696v-13.855H72.31v-4.896h3.712v-5.568h5.696v5.568h3.712V195.539z"/>
	<path fill="#FFFFFF" d="M88.085,182.515h5.696v10.048c1.173-1.578,2.923-2.368,5.248-2.368c1.451,0,2.73,0.336,3.84,1.009
		c1.109,0.672,1.968,1.637,2.576,2.896s0.912,2.741,0.912,4.448v10.848h-5.696v-9.888c0-1.429-0.283-2.522-0.848-3.28
		c-0.565-0.757-1.381-1.136-2.448-1.136c-1.109,0-1.984,0.416-2.624,1.248c-0.64,0.832-0.96,1.974-0.96,3.424v9.632h-5.696V182.515z
		"/>
	<path fill="#FFFFFF" d="M113.957,208.579c-1.483-0.844-2.64-2.012-3.472-3.505c-0.832-1.492-1.248-3.178-1.248-5.056
		c0-1.877,0.416-3.563,1.248-5.056s1.989-2.661,3.472-3.504s3.163-1.265,5.04-1.265c1.877,0,3.557,0.422,5.04,1.265
		c1.482,0.843,2.64,2.011,3.473,3.504c0.832,1.493,1.249,3.179,1.249,5.056c0,0.619-0.043,1.228-0.129,1.824h-13.728
		c0.213,1.088,0.682,1.931,1.408,2.528c0.725,0.597,1.621,0.896,2.688,0.896c0.811,0,1.531-0.133,2.16-0.4
		c0.629-0.266,1.061-0.624,1.296-1.071h5.729c-0.32,1.194-0.918,2.245-1.792,3.151c-0.875,0.907-1.952,1.616-3.232,2.128
		c-1.28,0.513-2.667,0.769-4.16,0.769C117.119,209.843,115.439,209.421,113.957,208.579z M123.189,198.163
		c-0.235-1.131-0.715-1.989-1.44-2.576s-1.643-0.88-2.752-0.88s-2.016,0.293-2.72,0.88s-1.174,1.445-1.408,2.576H123.189z"/>
	<path fill="#FFFFFF" d="M132.115,190.643h5.697v1.92c1.172-1.578,2.922-2.368,5.248-2.368c1.023,0,1.844,0.107,2.463,0.32
		l0.064,5.344c-0.811-0.426-1.781-0.64-2.912-0.64c-1.514,0-2.703,0.405-3.568,1.216c-0.863,0.812-1.295,1.931-1.295,3.36v9.6
		h-5.697V190.643z"/>
	<path fill="#FFFFFF" d="M160.404,190.946c1.279,0.502,2.305,1.211,3.072,2.128c0.768,0.918,1.184,1.984,1.248,3.2h-5.504
		c-0.086-0.576-0.422-1.028-1.008-1.359c-0.588-0.331-1.307-0.496-2.16-0.496s-1.563,0.133-2.129,0.399
		c-0.564,0.268-0.848,0.614-0.848,1.04c0,0.448,0.33,0.812,0.992,1.088c0.662,0.278,1.813,0.544,3.457,0.801
		c2.709,0.405,4.639,1.077,5.791,2.016s1.729,2.229,1.729,3.872c0,1.237-0.395,2.325-1.184,3.264
		c-0.791,0.938-1.857,1.664-3.201,2.176c-1.344,0.513-2.816,0.769-4.416,0.769c-1.621,0-3.088-0.262-4.4-0.784
		c-1.311-0.522-2.357-1.264-3.135-2.224c-0.779-0.96-1.201-2.08-1.264-3.36h5.504c0.084,0.598,0.447,1.083,1.088,1.456
		c0.639,0.373,1.408,0.56,2.303,0.56c0.918,0,1.676-0.148,2.273-0.447c0.596-0.299,0.895-0.661,0.895-1.088
		c0-0.448-0.352-0.827-1.055-1.137c-0.705-0.309-1.857-0.581-3.457-0.815c-2.453-0.362-4.303-0.981-5.551-1.856
		c-1.248-0.874-1.873-2.208-1.873-4c0-1.194,0.379-2.24,1.137-3.136c0.756-0.896,1.785-1.589,3.088-2.08
		c1.301-0.49,2.752-0.736,4.352-0.736C157.705,190.194,159.125,190.445,160.404,190.946z"/>
</g>
<g id="Layer_2">
	<g>
		<path fill="#333333" d="M125.504,72.996c-5.775,5.775-5.774,15.169,0,20.944c5.775,5.775,15.17,5.775,20.943,0
			c5.775-5.775,5.775-15.169,0-20.944C140.674,67.221,131.279,67.221,125.504,72.996z M141.373,88.865
			c-2.975,2.975-7.816,2.976-10.795-0.001c-2.976-2.976-2.977-7.816,0-10.793c2.979-2.977,7.818-2.975,10.793,0
			C144.348,81.046,144.35,85.888,141.373,88.865z"/>
		<path fill="#333333" d="M99.736,119.707c5.775,5.775,15.17,5.775,20.945,0c5.774-5.774,5.774-15.17,0-20.945
			c-5.774-5.774-15.169-5.774-20.944,0C93.962,104.537,93.962,113.933,99.736,119.707z M115.606,103.837
			c2.975,2.976,2.977,7.818,0,10.794c-2.977,2.977-7.818,2.977-10.794,0c-2.977-2.976-2.977-7.816,0-10.793
			S112.631,100.862,115.606,103.837z"/>
		<path fill="#333333" d="M94.914,145.474c5.774-5.774,5.774-15.169,0-20.944c-5.774-5.774-15.169-5.774-20.944,0
			s-5.774,15.17,0,20.944C79.744,151.248,89.14,151.248,94.914,145.474z M79.045,129.604c2.976-2.975,7.817-2.976,10.793,0
			c2.977,2.977,2.977,7.817,0,10.794c-2.977,2.978-7.819,2.976-10.794,0C76.07,137.424,76.068,132.582,79.045,129.604z"/>
	</g>
</g>
</svg>
