<?xml version="1.0" encoding="utf-8"?>
<!-- Generator: Adobe Illustrator 16.0.0, SVG Export Plug-In . SVG Version: 6.00 Build 0)  -->
<!DOCTYPE svg PUBLIC "-//W3C//DTD SVG 1.1//EN" "http://www.w3.org/Graphics/SVG/1.1/DTD/svg11.dtd">
<svg version="1.1" id="Layer_1" xmlns="http://www.w3.org/2000/svg" xmlns:xlink="http://www.w3.org/1999/xlink" x="0px" y="0px"
	 width="256px" height="256px" viewBox="0 0 256 256" enable-background="new 0 0 256 256" xml:space="preserve">
<path id="XMLID_239_" fill="#EA4C3A" d="M228.05,37.55L198.8,3.65c-0.899-0.9-2.45-0.9-3.35,0l-29.25,33.9
	c-1.3,1.3-0.3,3.35,1.649,3.35h13.7v26.6h31.05V40.9h13.7C228.35,40.9,229.35,38.85,228.05,37.55z"/>
<rect id="XMLID_238_" x="181.6" y="72.3" fill="#EA4C3A" width="31.051" height="12.1"/>
<path id="XMLID_237_" fill="#EA4C3A" d="M181.6,93.65c0,1.1,1,2,2.25,2H210.4c1.25,0,2.25-0.9,2.25-2V89.2H181.6V93.65z"/>
<path id="XMLID_236_" fill="#EA4C3A" d="M193.35,232.1c0,7.9-6.399,14.301-14.3,14.301H54.75c-7.9,0-14.3-6.4-14.3-14.301V227.7
	h-6.6v6.8c0,10.25,8.3,18.5,18.5,18.5H181.4c10.25,0,18.5-8.3,18.5-18.5V100.2H193.3V232.1H193.35z"/>
<path id="XMLID_235_" fill="#EA4C3A" d="M40.45,55.15c0-7.9,6.4-14.3,14.3-14.3h106.6c-0.699-2.2-0.149-4.65,1.5-6.35l0.2-0.2H52.4
	c-10.25,0-18.5,8.3-18.5,18.5v113.7h6.6V55.15H40.45z"/>
<rect x="33.85" y="175.5" fill="#EA4C3A" width="139.333" height="43.567"/>
<g>
	<path fill="#FFFFFF" d="M55.724,180.195h13.521c3.024,0,5.623,0.514,7.798,1.539c2.174,1.026,3.837,2.469,4.99,4.327
		c1.151,1.857,1.728,4.035,1.728,6.53c0,2.524-0.576,4.722-1.728,6.594c-1.152,1.872-2.815,3.322-4.99,4.348
		c-2.175,1.026-4.774,1.539-7.798,1.539h-5.659v9.027h-7.862V180.195z M68.9,198.375c2.217,0,3.938-0.5,5.162-1.498
		c1.224-0.998,1.836-2.427,1.836-4.285c0-1.857-0.612-3.271-1.836-4.243c-1.225-0.97-2.945-1.455-5.162-1.455h-5.314v11.481H68.9z"
		/>
	<path fill="#FFFFFF" d="M87.994,180.195h13.651c3.83,0,7.171,0.715,10.022,2.143c2.851,1.429,5.04,3.426,6.566,5.99
		c1.526,2.565,2.29,5.512,2.29,8.84s-0.764,6.275-2.29,8.84c-1.527,2.566-3.715,4.556-6.566,5.97
		c-2.852,1.415-6.193,2.122-10.022,2.122H87.994V180.195z M101.775,207.402c3.398,0,6.063-0.895,7.992-2.684
		c1.929-1.789,2.895-4.306,2.895-7.551c0-3.244-0.965-5.768-2.895-7.571c-1.93-1.802-4.594-2.703-7.992-2.703h-5.918v20.509H101.775
		z"/>
	<path fill="#FFFFFF" d="M125.232,180.195h25.834v6.656h-17.972v7.696h15.983v6.572h-15.983V214.1h-7.862V180.195z"/>
</g>
<path fill="none" stroke="#EA4C3A" stroke-width="5" stroke-miterlimit="10" d="M113.301,65.031
	c2.174,1.023,1.723,2.353,1.052,8.621c-0.681,6.468-2.97,18.281-7.379,29.9c-4.414,11.603-10.963,23.002-16.671,31.44
	c-5.703,8.443-10.581,13.932-14.305,17.102c-3.735,3.164-6.317,4.01-8.003,4.291c-1.674,0.281-2.435,0-2.885-0.85
	c-0.453-0.85-0.61-2.24-0.221-3.945c0.378-1.68,1.287-3.652,3.865-6.178c2.601-2.531,6.857-5.635,12.795-8.514
	c5.937-2.883,13.544-5.559,19.789-7.391c6.248-1.821,11.112-2.812,15.373-3.586c4.269-0.779,7.921-1.334,11.5-1.621
	c3.573-0.268,7.081-0.268,10.509,0c3.422,0.287,6.77,0.842,9.667,1.555c2.888,0.699,5.329,1.54,7.462,2.887
	c2.121,1.33,3.953,3.16,4.863,5.209c0.92,2.031,0.92,4.291,0.16,5.906s-2.291,2.602-4.038,3.174c-1.747,0.549-3.728,0.689-6.09,0
	c-2.357-0.713-5.104-2.264-7.991-4.301c-2.889-2.043-5.939-4.578-9.894-8.518c-3.958-3.935-8.837-9.279-12.941-14.486
	c-4.104-5.207-7.468-10.269-9.75-14.561c-2.275-4.296-3.496-7.811-4.486-11.325c-0.991-3.524-1.751-7.039-2.054-10.203
	s-0.162-5.986,0.146-8.24c0.303-2.242,0.768-3.944,1.524-5.074c0.76-1.105,1.831-1.683,2.592-1.962
	c0.758-0.277,1.221-0.277,1.671-0.35c0.453-0.073,0.906-0.211,1.601,0c0.665,0.202,1.545,0.74,2.425,1.289"/>
</svg>
