<?xml version="1.0" encoding="utf-8"?>
<!-- Generator: Adobe Illustrator 16.0.0, SVG Export Plug-In . SVG Version: 6.00 Build 0)  -->
<!DOCTYPE svg PUBLIC "-//W3C//DTD SVG 1.1//EN" "http://www.w3.org/Graphics/SVG/1.1/DTD/svg11.dtd">
<svg version="1.1" id="Layer_1" xmlns="http://www.w3.org/2000/svg" xmlns:xlink="http://www.w3.org/1999/xlink" x="0px" y="0px"
	 width="256px" height="256px" viewBox="0 0 256 256" enable-background="new 0 0 256 256" xml:space="preserve">
<g id="XMLID_1043_">
	<rect id="XMLID_244_" x="60.15" y="79.3" fill="#353535" stroke="#FFFFFF" stroke-miterlimit="10" width="113.55" height="9.55"/>
	<rect id="XMLID_243_" x="60.15" y="94.8" fill="#353535" stroke="#FFFFFF" stroke-miterlimit="10" width="113.55" height="9.55"/>
	
		<rect id="XMLID_242_" x="60.15" y="110.35" fill="#353535" stroke="#FFFFFF" stroke-miterlimit="10" width="113.55" height="9.55"/>
	
		<rect id="XMLID_241_" x="60.15" y="125.85" fill="#353535" stroke="#FFFFFF" stroke-miterlimit="10" width="113.55" height="9.55"/>
	
		<rect id="XMLID_240_" x="60.15" y="141.35" fill="#353535" stroke="#FFFFFF" stroke-miterlimit="10" width="88.25" height="9.551"/>
	<path id="XMLID_239_" fill="#353535" stroke="#FFFFFF" stroke-miterlimit="10" d="M228.05,37.55L198.8,3.65
		c-0.899-0.9-2.45-0.9-3.35,0l-29.25,33.9c-1.3,1.3-0.3,3.35,1.649,3.35h13.7v26.6h31.05V40.9h13.7
		C228.35,40.9,229.35,38.85,228.05,37.55z"/>
	<rect id="XMLID_238_" x="181.6" y="72.3" fill="#353535" stroke="#FFFFFF" stroke-miterlimit="10" width="31.051" height="12.1"/>
	<path id="XMLID_237_" fill="#353535" stroke="#FFFFFF" stroke-miterlimit="10" d="M181.6,93.65c0,1.1,1,2,2.25,2H210.4
		c1.25,0,2.25-0.9,2.25-2V89.2H181.6V93.65z"/>
	<path id="XMLID_236_" fill="#353535" stroke="#FFFFFF" stroke-miterlimit="10" d="M193.35,232.1c0,7.9-6.399,14.301-14.3,14.301
		H54.75c-7.9,0-14.3-6.4-14.3-14.301V227.7h-6.6v6.8c0,10.25,8.3,18.5,18.5,18.5H181.4c10.25,0,18.5-8.3,18.5-18.5V100.2H193.3
		V232.1H193.35z"/>
	<path id="XMLID_235_" fill="#353535" stroke="#FFFFFF" stroke-miterlimit="10" d="M40.45,55.15c0-7.9,6.4-14.3,14.3-14.3h106.6
		c-0.699-2.2-0.149-4.65,1.5-6.35l0.2-0.2H52.4c-10.25,0-18.5,8.3-18.5,18.5v113.7h6.6V55.15H40.45z"/>
	<rect x="33.85" y="174.5" fill="#353535" stroke="#FFFFFF" stroke-miterlimit="10" width="139.333" height="43.567"/>
	<g>
		<path fill="#FFFFFF" d="M86.496,185.894H75.047V213.1h-7.862v-27.206H55.737v-6.698h30.759V185.894z"/>
		<path fill="#FFFFFF" d="M100.232,196.002l-11.275-16.807h9.331l7.084,11.065l7.301-11.065h8.942l-11.319,16.557l11.708,17.348
			h-9.202l-7.56-11.689L97.51,213.1h-8.942L100.232,196.002z"/>
		<path fill="#FFFFFF" d="M154.836,185.894h-11.449V213.1h-7.861v-27.206h-11.448v-6.698h30.759V185.894z"/>
	</g>
</g>
</svg>
