<?xml version="1.0" encoding="utf-8"?>
<!-- Generator: Adobe Illustrator 16.0.0, SVG Export Plug-In . SVG Version: 6.00 Build 0)  -->
<!DOCTYPE svg PUBLIC "-//W3C//DTD SVG 1.1//EN" "http://www.w3.org/Graphics/SVG/1.1/DTD/svg11.dtd">
<svg version="1.1" id="Layer_1" xmlns="http://www.w3.org/2000/svg" xmlns:xlink="http://www.w3.org/1999/xlink" x="0px" y="0px"
	 width="256px" height="256px" viewBox="0 0 256 256" enable-background="new 0 0 256 256" xml:space="preserve">
<rect id="XMLID_244_" x="60.15" y="79.3" fill="#B93316" width="113.55" height="9.55"/>
<rect id="XMLID_243_" x="60.15" y="94.8" fill="#B93316" width="113.55" height="9.55"/>
<rect id="XMLID_242_" x="60.15" y="110.35" fill="#B93316" width="113.55" height="9.55"/>
<rect id="XMLID_241_" x="60.15" y="125.85" fill="#B93316" width="113.55" height="9.55"/>
<rect id="XMLID_240_" x="60.15" y="141.35" fill="#B93316" width="88.25" height="9.551"/>
<path id="XMLID_239_" fill="#B93316" d="M228.05,37.55L198.8,3.65c-0.899-0.9-2.45-0.9-3.35,0l-29.25,33.9
	c-1.3,1.3-0.3,3.35,1.649,3.35h13.7v26.6h31.05V40.9h13.7C228.35,40.9,229.35,38.85,228.05,37.55z"/>
<rect id="XMLID_238_" x="181.6" y="72.3" fill="#B93316" width="31.051" height="12.1"/>
<path id="XMLID_237_" fill="#B93316" d="M181.6,93.65c0,1.1,1,2,2.25,2H210.4c1.25,0,2.25-0.9,2.25-2V89.2H181.6V93.65z"/>
<path id="XMLID_236_" fill="#B93316" d="M193.35,232.1c0,7.9-6.399,14.301-14.3,14.301H54.75c-7.9,0-14.3-6.4-14.3-14.301V227.7
	h-6.6v6.8c0,10.25,8.3,18.5,18.5,18.5H181.4c10.25,0,18.5-8.3,18.5-18.5V100.2H193.3V232.1H193.35z"/>
<path id="XMLID_235_" fill="#B93316" d="M40.45,55.15c0-7.9,6.4-14.3,14.3-14.3h106.6c-0.699-2.2-0.149-4.65,1.5-6.35l0.2-0.2H52.4
	c-10.25,0-18.5,8.3-18.5,18.5v113.7h6.6V55.15H40.45z"/>
<rect x="33.85" y="174.5" fill="#B93316" width="139.333" height="43.567"/>
<g>
	<path fill="#FFFFFF" d="M57.724,179.195h13.521c3.024,0,5.623,0.514,7.798,1.539c2.174,1.026,3.837,2.469,4.99,4.327
		c1.151,1.857,1.728,4.035,1.728,6.53c0,2.524-0.576,4.722-1.728,6.594c-1.152,1.872-2.815,3.322-4.99,4.348
		c-2.175,1.026-4.774,1.539-7.798,1.539h-5.659v9.027h-7.862V179.195z M70.9,197.375c2.217,0,3.938-0.5,5.162-1.498
		c1.224-0.998,1.836-2.427,1.836-4.285c0-1.857-0.612-3.271-1.836-4.243c-1.225-0.97-2.945-1.455-5.162-1.455h-5.314v11.481H70.9z"
		/>
	<path fill="#FFFFFF" d="M89.994,179.195h13.521c3.024,0,5.623,0.514,7.798,1.539c2.174,1.026,3.837,2.469,4.99,4.327
		c1.151,1.857,1.728,4.035,1.728,6.53c0,2.524-0.576,4.722-1.728,6.594c-1.152,1.872-2.815,3.322-4.99,4.348
		c-2.175,1.026-4.774,1.539-7.798,1.539h-5.659v9.027h-7.862V179.195z M103.17,197.375c2.217,0,3.938-0.5,5.162-1.498
		c1.224-0.998,1.836-2.427,1.836-4.285c0-1.857-0.612-3.271-1.836-4.243c-1.225-0.97-2.945-1.455-5.162-1.455h-5.314v11.481H103.17z
		"/>
	<path fill="#FFFFFF" d="M151.035,185.894h-11.447V213.1h-7.863v-27.206h-11.448v-6.698h30.758V185.894z"/>
</g>
</svg>
