<?xml version="1.0" encoding="utf-8"?>
<!-- Generator: Adobe Illustrator 16.0.0, SVG Export Plug-In . SVG Version: 6.00 Build 0)  -->
<!DOCTYPE svg PUBLIC "-//W3C//DTD SVG 1.1//EN" "http://www.w3.org/Graphics/SVG/1.1/DTD/svg11.dtd">
<svg version="1.1" id="Layer_1" xmlns="http://www.w3.org/2000/svg" xmlns:xlink="http://www.w3.org/1999/xlink" x="0px" y="0px"
	 width="256px" height="256px" viewBox="0 0 256 256" enable-background="new 0 0 256 256" xml:space="preserve">
<g id="XMLID_1043_">
	<rect id="XMLID_244_" x="60.15" y="79.3" fill="#251C67" stroke="#FFFFFF" stroke-miterlimit="10" width="113.55" height="9.55"/>
	<rect id="XMLID_243_" x="60.15" y="94.8" fill="#251C67" stroke="#FFFFFF" stroke-miterlimit="10" width="113.55" height="9.55"/>
	
		<rect id="XMLID_242_" x="60.15" y="110.35" fill="#251C67" stroke="#FFFFFF" stroke-miterlimit="10" width="113.55" height="9.55"/>
	
		<rect id="XMLID_241_" x="60.15" y="125.85" fill="#251C67" stroke="#FFFFFF" stroke-miterlimit="10" width="113.55" height="9.55"/>
	
		<rect id="XMLID_240_" x="60.15" y="141.35" fill="#251C67" stroke="#FFFFFF" stroke-miterlimit="10" width="88.25" height="9.551"/>
	<path id="XMLID_239_" fill="#251C67" stroke="#FFFFFF" stroke-miterlimit="10" d="M228.05,37.55L198.8,3.65
		c-0.899-0.9-2.45-0.9-3.35,0l-29.25,33.9c-1.3,1.3-0.3,3.35,1.649,3.35h13.7v26.6h31.05V40.9h13.7
		C228.35,40.9,229.35,38.85,228.05,37.55z"/>
	<rect id="XMLID_238_" x="181.6" y="72.3" fill="#251C67" stroke="#FFFFFF" stroke-miterlimit="10" width="31.051" height="12.1"/>
	<path id="XMLID_237_" fill="#251C67" stroke="#FFFFFF" stroke-miterlimit="10" d="M181.6,93.65c0,1.1,1,2,2.25,2H210.4
		c1.25,0,2.25-0.9,2.25-2V89.2H181.6V93.65z"/>
	<path id="XMLID_236_" fill="#251C67" stroke="#FFFFFF" stroke-miterlimit="10" d="M193.35,232.1c0,7.9-6.399,14.301-14.3,14.301
		H54.75c-7.9,0-14.3-6.4-14.3-14.301V227.7h-6.6v6.8c0,10.25,8.3,18.5,18.5,18.5H181.4c10.25,0,18.5-8.3,18.5-18.5V100.2H193.3
		V232.1H193.35z"/>
	<path id="XMLID_235_" fill="#251C67" stroke="#FFFFFF" stroke-miterlimit="10" d="M40.45,55.15c0-7.9,6.4-14.3,14.3-14.3h106.6
		c-0.699-2.2-0.149-4.65,1.5-6.35l0.2-0.2H52.4c-10.25,0-18.5,8.3-18.5,18.5v113.7h6.6V55.15H40.45z"/>
	<rect x="34.002" y="174.5" fill="#251C67" stroke="#FFFFFF" stroke-miterlimit="10" width="139.334" height="43.567"/>
	<g>
		<path fill="#90C6FD" d="M56.572,179.195h13.521c3.024,0,5.623,0.514,7.798,1.539c2.174,1.026,3.837,2.469,4.99,4.327
			c1.151,1.857,1.728,4.035,1.728,6.53c0,2.524-0.576,4.722-1.728,6.594c-1.152,1.872-2.815,3.322-4.99,4.348
			c-2.175,1.026-4.774,1.539-7.798,1.539h-5.659v9.027h-7.862V179.195z M69.749,197.375c2.217,0,3.938-0.5,5.162-1.498
			c1.224-0.998,1.836-2.427,1.836-4.285c0-1.857-0.612-3.271-1.836-4.243c-1.225-0.97-2.945-1.455-5.162-1.455h-5.314v11.481H69.749
			z"/>
		<path fill="#90C6FD" d="M109.578,179.778c2.102,0.942,3.78,2.253,5.033,3.931c1.252,1.679,1.937,3.585,2.052,5.72h-8.122
			c-0.231-1.497-0.907-2.662-2.03-3.494c-1.124-0.832-2.621-1.248-4.493-1.248c-1.786,0-3.183,0.313-4.19,0.937
			c-1.009,0.624-1.512,1.463-1.512,2.517c0,0.832,0.316,1.512,0.95,2.038c0.633,0.527,1.605,0.992,2.916,1.394
			c1.311,0.402,3.219,0.853,5.724,1.353c3.888,0.776,6.674,2.059,8.359,3.848c1.685,1.789,2.527,4.028,2.527,6.719
			c0,2.107-0.626,3.951-1.879,5.532s-2.959,2.794-5.119,3.641c-2.16,0.846-4.565,1.269-7.214,1.269c-2.88,0-5.465-0.479-7.754-1.436
			s-4.104-2.323-5.443-4.098s-2.067-3.854-2.182-6.24h8.079c0.23,1.637,1.043,2.947,2.44,3.932s3.204,1.477,5.422,1.477
			c1.612,0,2.944-0.346,3.996-1.04c1.051-0.692,1.577-1.594,1.577-2.704c0-0.887-0.281-1.622-0.842-2.204
			c-0.562-0.583-1.455-1.082-2.679-1.498s-2.931-0.817-5.119-1.206c-3.946-0.721-6.898-1.928-8.856-3.619
			c-1.959-1.691-2.938-4.077-2.938-7.155c0-1.997,0.626-3.729,1.879-5.2c1.252-1.47,2.959-2.6,5.119-3.391
			c2.16-0.79,4.579-1.186,7.257-1.186C105.129,178.363,107.476,178.835,109.578,179.778z"/>
		<path fill="#90C6FD" d="M121.415,179.195h13.651c3.83,0,7.171,0.715,10.022,2.143c2.851,1.429,5.039,3.426,6.566,5.99
			c1.526,2.565,2.289,5.512,2.289,8.84s-0.763,6.275-2.289,8.84c-1.527,2.566-3.716,4.556-6.566,5.97
			c-2.852,1.415-6.192,2.122-10.022,2.122h-13.651V179.195z M135.195,206.402c3.398,0,6.063-0.895,7.992-2.684
			s2.895-4.306,2.895-7.551c0-3.244-0.965-5.768-2.895-7.571c-1.93-1.802-4.594-2.703-7.992-2.703h-5.918v20.509H135.195z"/>
	</g>
</g>
</svg>
