<?xml version="1.0" encoding="utf-8"?>
<!-- Generator: Adobe Illustrator 16.0.0, SVG Export Plug-In . SVG Version: 6.00 Build 0)  -->
<!DOCTYPE svg PUBLIC "-//W3C//DTD SVG 1.1//EN" "http://www.w3.org/Graphics/SVG/1.1/DTD/svg11.dtd">
<svg version="1.1" id="Layer_1" xmlns="http://www.w3.org/2000/svg" xmlns:xlink="http://www.w3.org/1999/xlink" x="0px" y="0px"
	 width="256px" height="256px" viewBox="0 0 256 256" enable-background="new 0 0 256 256" xml:space="preserve">
<g id="XMLID_1043_">
	<rect id="XMLID_244_" x="60.15" y="79.3" fill="#134CB1" width="113.55" height="9.55"/>
	<rect id="XMLID_243_" x="60.15" y="94.8" fill="#134CB1" width="113.55" height="9.55"/>
	<rect id="XMLID_242_" x="60.15" y="110.35" fill="#134CB1" width="113.55" height="9.55"/>
	<rect id="XMLID_241_" x="60.15" y="125.85" fill="#134CB1" width="113.55" height="9.55"/>
	<rect id="XMLID_240_" x="60.15" y="141.35" fill="#134CB1" width="88.25" height="9.551"/>
	<path id="XMLID_239_" fill="#134CB1" d="M228.05,37.55L198.8,3.65c-0.899-0.9-2.45-0.9-3.35,0l-29.25,33.9
		c-1.3,1.3-0.3,3.35,1.649,3.35h13.7v26.6h31.05V40.9h13.7C228.35,40.9,229.35,38.85,228.05,37.55z"/>
	<rect id="XMLID_238_" x="181.6" y="72.3" fill="#134CB1" width="31.051" height="12.1"/>
	<path id="XMLID_237_" fill="#134CB1" d="M181.6,93.65c0,1.1,1,2,2.25,2H210.4c1.25,0,2.25-0.9,2.25-2V89.2H181.6V93.65z"/>
	<path id="XMLID_236_" fill="#134CB1" d="M193.35,232.1c0,7.9-6.399,14.301-14.3,14.301H54.75c-7.9,0-14.3-6.4-14.3-14.301V227.7
		h-6.6v6.8c0,10.25,8.3,18.5,18.5,18.5H181.4c10.25,0,18.5-8.3,18.5-18.5V100.2H193.3V232.1H193.35z"/>
	<path id="XMLID_235_" fill="#134CB1" d="M40.45,55.15c0-7.9,6.4-14.3,14.3-14.3h106.6c-0.699-2.2-0.149-4.65,1.5-6.35l0.2-0.2H52.4
		c-10.25,0-18.5,8.3-18.5,18.5v113.7h6.6V55.15H40.45z"/>
	<rect x="33.85" y="174.5" fill="#134CB1" width="139.333" height="43.567"/>
	<g>
		<path fill="#FFFFFF" d="M47.724,179.195h13.651c3.83,0,7.171,0.715,10.022,2.143c2.851,1.429,5.04,3.426,6.566,5.99
			c1.526,2.565,2.29,5.512,2.29,8.84s-0.764,6.275-2.29,8.84c-1.527,2.566-3.715,4.556-6.566,5.97
			c-2.852,1.415-6.193,2.122-10.022,2.122H47.724V179.195z M61.505,206.402c3.398,0,6.063-0.895,7.992-2.684
			c1.929-1.789,2.895-4.306,2.895-7.551c0-3.244-0.965-5.768-2.895-7.571c-1.93-1.802-4.594-2.703-7.992-2.703h-5.918v20.509H61.505
			z"/>
		<path fill="#FFFFFF" d="M92.674,211.623c-2.895-1.54-5.163-3.661-6.804-6.365s-2.462-5.747-2.462-9.131s0.821-6.428,2.462-9.132
			s3.91-4.825,6.804-6.364c2.894-1.539,6.141-2.309,9.741-2.309s6.847,0.77,9.742,2.309s5.163,3.66,6.804,6.364
			s2.462,5.748,2.462,9.132s-0.821,6.427-2.462,9.131s-3.91,4.825-6.804,6.365c-2.895,1.539-6.142,2.309-9.742,2.309
			S95.568,213.162,92.674,211.623z M108.118,205.694c1.699-0.942,3.031-2.253,3.996-3.931c0.964-1.678,1.447-3.557,1.447-5.637
			c0-2.107-0.483-3.994-1.447-5.658c-0.965-1.664-2.297-2.967-3.996-3.91c-1.7-0.942-3.601-1.414-5.703-1.414
			c-2.103,0-4.003,0.472-5.702,1.414c-1.7,0.943-3.031,2.246-3.996,3.91c-0.965,1.664-1.447,3.551-1.447,5.658
			c0,2.08,0.482,3.959,1.447,5.637c0.965,1.678,2.296,2.988,3.996,3.931c1.699,0.943,3.6,1.415,5.702,1.415
			C104.517,207.109,106.418,206.638,108.118,205.694z"/>
		<path fill="#FFFFFF" d="M133.713,211.623c-2.865-1.54-5.111-3.661-6.738-6.365c-1.627-2.704-2.441-5.747-2.441-9.131
			s0.813-6.428,2.441-9.132c1.627-2.704,3.873-4.825,6.738-6.364s6.084-2.309,9.656-2.309c3.139,0,5.953,0.555,8.445,1.664
			c2.49,1.109,4.514,2.635,6.068,4.575c1.557,1.942,2.578,4.119,3.068,6.531h-7.949c-0.432-1.664-1.506-3.05-3.219-4.16
			c-1.713-1.108-3.795-1.663-6.242-1.663c-2.102,0-4.004,0.464-5.703,1.394c-1.699,0.929-3.031,2.219-3.994,3.868
			c-0.967,1.65-1.447,3.516-1.447,5.596c0,2.053,0.48,3.91,1.447,5.574c0.963,1.664,2.295,2.961,3.994,3.89
			c1.699,0.93,3.602,1.394,5.703,1.394c1.613,0,3.133-0.305,4.559-0.915s2.605-1.4,3.541-2.371s1.506-1.969,1.707-2.995h7.949
			c-0.375,2.302-1.369,4.465-2.98,6.489c-1.613,2.024-3.723,3.653-6.33,4.888c-2.605,1.234-5.479,1.852-8.617,1.852
			C139.797,213.932,136.578,213.162,133.713,211.623z"/>
	</g>
</g>
</svg>
